<svg width="116" height="20" viewBox="0 0 116 20" fill="none" xmlns="http://www.w3.org/2000/svg">
<g id="HorizonUI">
<path fill-rule="evenodd" clip-rule="evenodd" d="M25.2826 19.4447C23.9577 19.4447 22.7474 19.1431 21.6515 18.5399C20.5719 17.9368 19.7051 17.1135 19.0508 16.0702C18.4129 15.0105 18.094 13.8123 18.094 12.4755C18.094 11.1224 18.4129 9.92424 19.0508 8.8809C19.7051 7.83756 20.5719 7.0143 21.6515 6.41112C22.7474 5.80794 23.9577 5.50635 25.2826 5.50635C26.6075 5.50635 27.8097 5.80794 28.8892 6.41112C29.9687 7.0143 30.8274 7.83756 31.4653 8.8809C32.1196 9.92424 32.4467 11.1224 32.4467 12.4755C32.4467 13.8123 32.1196 15.0105 31.4653 16.0702C30.8274 17.1135 29.9687 17.9368 28.8892 18.5399C27.8097 19.1431 26.6075 19.4447 25.2826 19.4447ZM25.2826 16.1435C25.9532 16.1435 26.5339 15.9886 27.0246 15.6789C27.5316 15.3692 27.9242 14.9372 28.2022 14.3829C28.4966 13.8286 28.6438 13.1928 28.6438 12.4755C28.6438 11.7582 28.4966 11.1306 28.2022 10.5926C27.9242 10.0384 27.5316 9.60635 27.0246 9.29661C26.5339 8.97056 25.9532 8.80754 25.2826 8.80754C24.612 8.80754 24.0232 8.97056 23.5161 9.29661C23.0091 9.60635 22.6083 10.0384 22.3139 10.5926C22.0358 11.1306 21.8968 11.7582 21.8968 12.4755C21.8968 13.1928 22.0358 13.8286 22.3139 14.3829C22.6083 14.9372 23.0091 15.3692 23.5161 15.6789C24.0232 15.9886 24.612 16.1435 25.2826 16.1435Z" fill="#1B2559"/>
<path d="M39.2518 6.2644C38.7426 6.56146 38.3419 7.06997 38.0496 7.78992V5.79979H34.6148V19.1513H38.295V11.962C38.295 10.9676 38.573 10.2014 39.1291 9.66341C39.6853 9.10913 40.4131 8.832 41.3127 8.832H42.4658V5.65307H41.6807C40.7484 5.65307 39.9388 5.85685 39.2518 6.2644Z" fill="#1B2559"/>
<path d="M55.9631 8.97871L49.3725 16.2169V19.1513H60.9038V15.9723H54.4751L60.8793 8.73418V5.79979H49.6915V8.97871H55.9631Z" fill="#1B2559"/>
<path fill-rule="evenodd" clip-rule="evenodd" d="M69.1766 19.4447C67.8517 19.4447 66.6413 19.1431 65.5454 18.5399C64.4659 17.9368 63.599 17.1135 62.9448 16.0702C62.3069 15.0105 61.9879 13.8123 61.9879 12.4755C61.9879 11.1224 62.3069 9.92424 62.9448 8.8809C63.599 7.83756 64.4659 7.0143 65.5454 6.41112C66.6413 5.80794 67.8517 5.50635 69.1766 5.50635C70.5014 5.50635 71.7036 5.80794 72.7832 6.41112C73.8627 7.0143 74.7214 7.83756 75.3593 8.8809C76.0136 9.92424 76.3407 11.1224 76.3407 12.4755C76.3407 13.8123 76.0136 15.0105 75.3593 16.0702C74.7214 17.1135 73.8627 17.9368 72.7832 18.5399C71.7036 19.1431 70.5014 19.4447 69.1766 19.4447ZM69.1766 16.1435C69.8472 16.1435 70.4278 15.9886 70.9185 15.6789C71.4256 15.3692 71.8181 14.9372 72.0962 14.3829C72.3906 13.8286 72.5378 13.1928 72.5378 12.4755C72.5378 11.7582 72.3906 11.1306 72.0962 10.5926C71.8181 10.0384 71.4256 9.60635 70.9185 9.29661C70.4278 8.97056 69.8472 8.80754 69.1766 8.80754C68.506 8.80754 67.9171 8.97056 67.4101 9.29661C66.903 9.60635 66.5023 10.0384 66.2079 10.5926C65.9298 11.1306 65.7908 11.7582 65.7908 12.4755C65.7908 13.1928 65.9298 13.8286 66.2079 14.3829C66.5023 14.9372 66.903 15.3692 67.4101 15.6789C67.9171 15.9886 68.506 16.1435 69.1766 16.1435Z" fill="#1B2559"/>
<path d="M83.2439 6.09323C82.6867 6.39734 82.2533 6.84087 81.9436 7.42382V5.79979H78.5087V19.1513H82.1889V11.3507C82.1889 10.829 82.2871 10.3807 82.4833 10.0058C82.696 9.6308 82.9904 9.33736 83.3666 9.12543C83.7428 8.91351 84.1681 8.80754 84.6424 8.80754C85.1331 8.80754 85.5584 8.91351 85.9182 9.12543C86.2944 9.33736 86.5806 9.6308 86.7769 10.0058C86.9895 10.3807 87.0959 10.829 87.0959 11.3507V19.1513H90.776V10.5682C90.776 9.55744 90.5634 8.67712 90.1382 7.92722C89.7129 7.16102 89.1159 6.56599 88.3471 6.14214C87.5947 5.71828 86.7115 5.50635 85.6974 5.50635C84.7651 5.50635 83.9473 5.70198 83.2439 6.09323Z" fill="#1B2559"/>
<path d="M100.728 19.4447C99.2887 19.4447 98.0048 19.1431 96.8762 18.5399C95.7476 17.9368 94.8561 17.1135 94.2019 16.0702C93.564 15.0105 93.245 13.8123 93.245 12.4755V0.933594H97.0479V12.231C97.0479 12.9483 97.2033 13.6004 97.5141 14.1873C97.8412 14.7578 98.2828 15.2061 98.8389 15.5322C99.3951 15.8582 100.025 16.0212 100.728 16.0212C101.448 16.0212 102.078 15.8582 102.617 15.5322C103.173 15.2061 103.607 14.7578 103.918 14.1873C104.245 13.6004 104.408 12.9483 104.408 12.231V0.933594H108.211V12.4755C108.211 13.8123 107.884 15.0105 107.23 16.0702C106.592 17.1135 105.709 17.9368 104.58 18.5399C103.451 19.1431 102.167 19.4447 100.728 19.4447Z" fill="#1B2559"/>
<path d="M0.933899 19.1513V0.933594H4.73677V8.80754H11.8518V0.933594H15.6547V19.1513H11.8518V12.1087H4.73677V19.1513H0.933899Z" fill="#1B2559"/>
<path d="M44.0788 5.79979H47.759V19.1513H44.0788V5.79979Z" fill="#1B2559"/>
<path d="M44.0788 4.60158V0.933594H47.759V4.60158H44.0788Z" fill="#1B2559"/>
<path d="M111.22 0.933594V19.1513H115.023V0.933594H111.22Z" fill="#1B2559"/>
</g>
</svg>
