<svg width="25" height="24" viewBox="0 0 25 24" fill="none" xmlns="http://www.w3.org/2000/svg">
<g id="users / 24 / Outline">
<path id="Vector" d="M16.3766 12.71C17.357 11.9387 18.0726 10.8809 18.4239 9.68394C18.7751 8.48697 18.7446 7.21027 18.3364 6.03147C17.9283 4.85267 17.1629 3.83039 16.1467 3.10686C15.1305 2.38332 13.9141 1.99451 12.6666 1.99451C11.4192 1.99451 10.2028 2.38332 9.18657 3.10686C8.17038 3.83039 7.40498 4.85267 6.99685 6.03147C6.58872 7.21027 6.55815 8.48697 6.9094 9.68394C7.26065 10.8809 7.97625 11.9387 8.95664 12.71C7.27672 13.383 5.81093 14.4994 4.71553 15.9399C3.62014 17.3805 2.9362 19.0913 2.73664 20.89C2.72219 21.0213 2.73375 21.1542 2.77066 21.2811C2.80757 21.4079 2.86911 21.5263 2.95175 21.6293C3.11866 21.8375 3.36142 21.9708 3.62664 22C3.89185 22.0292 4.1578 21.9518 4.36596 21.7849C4.57413 21.618 4.70746 21.3752 4.73664 21.11C4.95622 19.1552 5.88832 17.3498 7.35486 16.0388C8.82139 14.7278 10.7195 14.003 12.6866 14.003C14.6537 14.003 16.5519 14.7278 18.0184 16.0388C19.485 17.3498 20.4171 19.1552 20.6366 21.11C20.6638 21.3557 20.7811 21.5827 20.9657 21.747C21.1504 21.9114 21.3894 22.0015 21.6366 22H21.7466C22.0088 21.9698 22.2484 21.8373 22.4132 21.6313C22.578 21.4252 22.6548 21.1624 22.6266 20.9C22.4261 19.0962 21.7385 17.381 20.6375 15.9382C19.5365 14.4954 18.0636 13.3795 16.3766 12.71ZM12.6666 12C11.8755 12 11.1022 11.7654 10.4444 11.3259C9.78656 10.8864 9.27387 10.2616 8.97112 9.53074C8.66837 8.79983 8.58916 7.99557 8.7435 7.21964C8.89784 6.44372 9.2788 5.73099 9.83821 5.17158C10.3976 4.61217 11.1104 4.2312 11.8863 4.07686C12.6622 3.92252 13.4665 4.00173 14.1974 4.30448C14.9283 4.60724 15.553 5.11993 15.9925 5.77772C16.432 6.43552 16.6666 7.20888 16.6666 8C16.6666 9.06087 16.2452 10.0783 15.4951 10.8284C14.7449 11.5786 13.7275 12 12.6666 12Z" fill="white"/>
</g>
</svg>
